HIERARCHY
ROOT Hips
{
	OFFSET -14.64140 90.27770 -84.91600
	CHANNELS 6 Xposition Yposition Zposition Zrotation Xrotation Yrotation
	JOINT Spine
	{
		OFFSET 0.00000 13.20850 -1.60436
		CHANNELS 3 Zrotation Xrotation Yrotation
		JOINT Spine1
		{
			OFFSET 0.00000 8.61716 0.00000
			CHANNELS 3 Zrotation Xrotation Yrotation
			JOINT Spine2
			{
				OFFSET 0.00000 8.61717 0.00000
				CHANNELS 3 Zrotation Xrotation Yrotation
				JOINT Spine3
				{
					OFFSET 0.00000 8.61717 0.00000
					CHANNELS 3 Zrotation Xrotation Yrotation
					JOINT Neck
					{
						OFFSET 0.00000 11.07920 1.10792
						CHANNELS 3 Zrotation Xrotation Yrotation
						JOINT Neck1
						{
							OFFSET 0.00000 7.08032 0.00000
							CHANNELS 3 Zrotation Xrotation Yrotation
							JOINT Head
							{
								OFFSET 0.00000 7.08031 0.00000
								CHANNELS 3 Zrotation Xrotation Yrotation
								End site
								{
									OFFSET 0.00000 0.00000 0.00000
								}
							}
						}
					}
					JOINT RightShoulder
					{
						OFFSET -0.01000 7.91373 5.19711
						CHANNELS 3 Zrotation Xrotation Yrotation
						JOINT RightArm
						{
							OFFSET -18.41580 0.00000 0.00000
							CHANNELS 3 Zrotation Xrotation Yrotation
							JOINT RightForeArm
							{
								OFFSET -29.11090 0.00000 0.00000
								CHANNELS 3 Zrotation Xrotation Yrotation
								JOINT RightHand
								{
									OFFSET -24.65040 0.00000 0.00000
									CHANNELS 3 Zrotation Xrotation Yrotation
									JOINT RightHandThumb1
									{
										OFFSET -5.35114 -0.85590 3.97906
										CHANNELS 3 Zrotation Xrotation Yrotation
										JOINT RightHandThumb2
										{
											OFFSET -4.52789 0.00000 0.00000
											CHANNELS 3 Zrotation Xrotation Yrotation
											JOINT RightHandThumb3
											{
												OFFSET -2.46976 0.00000 0.00000
												CHANNELS 3 Zrotation Xrotation Yrotation
												End site
												{
													OFFSET 0.00000 0.00000 0.00000
												}
											}
										}
									}
									JOINT RightHandIndex1
									{
										OFFSET -14.26970 0.00000 2.88139
										CHANNELS 3 Zrotation Xrotation Yrotation
										JOINT RightHandIndex2
										{
											OFFSET -5.48836 0.00000 0.00000
											CHANNELS 3 Zrotation Xrotation Yrotation
											JOINT RightHandIndex3
											{
												OFFSET -3.01859 0.00000 0.00000
												CHANNELS 3 Zrotation Xrotation Yrotation
												End site
												{
													OFFSET 0.00000 0.00000 0.00000
												}
											}
										}
									}
									JOINT RightHandMiddle1
									{
										OFFSET -14.26970 0.00000 -0.09147
										CHANNELS 3 Zrotation Xrotation Yrotation
										JOINT RightHandMiddle2
										{
											OFFSET -6.17441 0.00000 0.00000
											CHANNELS 3 Zrotation Xrotation Yrotation
											JOINT RightHandMiddle3
											{
												OFFSET -3.56743 0.00000 0.00000
												CHANNELS 3 Zrotation Xrotation Yrotation
												End site
												{
													OFFSET 0.00000 0.00000 0.00000
												}
											}
										}
									}
									JOINT RightHandRing1
									{
										OFFSET -12.69180 0.00000 -3.06433
										CHANNELS 3 Zrotation Xrotation Yrotation
										JOINT RightHandRing2
										{
											OFFSET -5.62556 0.00000 0.00000
											CHANNELS 3 Zrotation Xrotation Yrotation
											JOINT RightHandRing3
											{
												OFFSET -3.56744 0.00000 0.00000
												CHANNELS 3 Zrotation Xrotation Yrotation
												End site
												{
													OFFSET 0.00000 0.00000 0.00000
												}
											}
										}
									}
									JOINT RightHandPinky1
									{
										OFFSET -11.11390 0.00000 -6.03719
										CHANNELS 3 Zrotation Xrotation Yrotation
										JOINT RightHandPinky2
										{
											OFFSET -4.52789 0.00000 0.00000
											CHANNELS 3 Zrotation Xrotation Yrotation
											JOINT RightHandPinky3
											{
												OFFSET -2.46976 0.00000 0.00000
												CHANNELS 3 Zrotation Xrotation Yrotation
												End site
												{
													OFFSET 0.00000 0.00000 0.00000
												}
											}
										}
									}
								}
							}
						}
					}
					JOINT LeftShoulder
					{
						OFFSET 0.01000 7.91373 5.19711
						CHANNELS 3 Zrotation Xrotation Yrotation
						JOINT LeftArm
						{
							OFFSET 18.41580 0.00000 0.00000
							CHANNELS 3 Zrotation Xrotation Yrotation
							JOINT LeftForeArm
							{
								OFFSET 29.11090 0.00000 0.00000
								CHANNELS 3 Zrotation Xrotation Yrotation
								JOINT LeftHand
								{
									OFFSET 24.65040 0.00000 0.00000
									CHANNELS 3 Zrotation Xrotation Yrotation
									JOINT LeftHandThumb1
									{
										OFFSET 5.35114 -0.85590 3.97906
										CHANNELS 3 Zrotation Xrotation Yrotation
										JOINT LeftHandThumb2
										{
											OFFSET 4.52789 0.00000 0.00000
											CHANNELS 3 Zrotation Xrotation Yrotation
											JOINT LeftHandThumb3
											{
												OFFSET 2.46977 0.00000 0.00000
												CHANNELS 3 Zrotation Xrotation Yrotation
												End site
												{
													OFFSET 0.00000 0.00000 0.00000
												}
											}
										}
									}
									JOINT LeftHandIndex1
									{
										OFFSET 14.26970 0.00000 2.88139
										CHANNELS 3 Zrotation Xrotation Yrotation
										JOINT LeftHandIndex2
										{
											OFFSET 5.48836 0.00000 0.00000
											CHANNELS 3 Zrotation Xrotation Yrotation
											JOINT LeftHandIndex3
											{
												OFFSET 3.01859 0.00000 0.00000
												CHANNELS 3 Zrotation Xrotation Yrotation
												End site
												{
													OFFSET 0.00000 0.00000 0.00000
												}
											}
										}
									}
									JOINT LeftHandMiddle1
									{
										OFFSET 14.26970 0.00000 -0.09147
										CHANNELS 3 Zrotation Xrotation Yrotation
										JOINT LeftHandMiddle2
										{
											OFFSET 6.17440 0.00000 0.00000
											CHANNELS 3 Zrotation Xrotation Yrotation
											JOINT LeftHandMiddle3
											{
												OFFSET 3.56744 0.00000 0.00000
												CHANNELS 3 Zrotation Xrotation Yrotation
												End site
												{
													OFFSET 0.00000 0.00000 0.00000
												}
											}
										}
									}
									JOINT LeftHandRing1
									{
										OFFSET 12.69180 0.00000 -3.06433
										CHANNELS 3 Zrotation Xrotation Yrotation
										JOINT LeftHandRing2
										{
											OFFSET 5.62556 0.00000 0.00000
											CHANNELS 3 Zrotation Xrotation Yrotation
											JOINT LeftHandRing3
											{
												OFFSET 3.56744 0.00000 0.00000
												CHANNELS 3 Zrotation Xrotation Yrotation
												End site
												{
													OFFSET 0.00000 0.00000 0.00000
												}
											}
										}
									}
									JOINT LeftHandPinky1
									{
										OFFSET 11.11390 0.00000 -6.03719
										CHANNELS 3 Zrotation Xrotation Yrotation
										JOINT LeftHandPinky2
										{
											OFFSET 4.52789 0.00000 0.00000
											CHANNELS 3 Zrotation Xrotation Yrotation
											JOINT LeftHandPinky3
											{
												OFFSET 2.46976 0.00000 0.00000
												CHANNELS 3 Zrotation Xrotation Yrotation
												End site
												{
													OFFSET 0.00000 0.00000 0.00000
												}
											}
										}
									}
								}
							}
						}
					}
					JOINT pCube4
					{
						OFFSET 0.00000 10.91090 1.10792
						CHANNELS 3 Zrotation Xrotation Yrotation
						End site
						{
							OFFSET 0.00000 0.00000 0.00000
						}
					}
				}
			}
		}
	}
	JOINT RightUpLeg
	{
		OFFSET -9.98441 0.00000 0.00000
		CHANNELS 3 Zrotation Xrotation Yrotation
		JOINT RightLeg
		{
			OFFSET 0.00000 -42.11790 0.00000
			CHANNELS 3 Zrotation Xrotation Yrotation
			JOINT RightFoot
			{
				OFFSET 0.00000 -45.00020 -0.00001
				CHANNELS 3 Zrotation Xrotation Yrotation
				JOINT RightForeFoot
				{
					OFFSET 0.00000 -3.74820 0.00000
					CHANNELS 3 Zrotation Xrotation Yrotation
					JOINT RightToeBase
					{
						OFFSET 0.00000 0.06325 14.43120
						CHANNELS 3 Zrotation Xrotation Yrotation
						End site
						{
							OFFSET 0.00000 0.00000 0.00000
						}
					}
				}
			}
		}
	}
	JOINT LeftUpLeg
	{
		OFFSET 9.98441 0.00000 0.00000
		CHANNELS 3 Zrotation Xrotation Yrotation
		JOINT LeftLeg
		{
			OFFSET 0.00000 -42.11800 0.00000
			CHANNELS 3 Zrotation Xrotation Yrotation
			JOINT LeftFoot
			{
				OFFSET 0.00000 -45.00070 0.00000
				CHANNELS 3 Zrotation Xrotation Yrotation
				JOINT LeftForeFoot
				{
					OFFSET 0.00000 -3.74824 0.00000
					CHANNELS 3 Zrotation Xrotation Yrotation
					JOINT LeftToeBase
					{
						OFFSET 0.00000 0.06325 14.43110
						CHANNELS 3 Zrotation Xrotation Yrotation
						End site
						{
							OFFSET 0.00000 0.00000 0.00000
						}
					}
				}
			}
		}
	}
}
MOTION
Frames: 4
Frame Time: 0.050000
-0.039243440967753555 -0.0167950149250302 -0.021746228478387385 0.04392269182857261 -0.023868287240120578 -0.005916232486793301 -1.302958404144743 1.6301455515894094 -1.0195227000454001 -0.898696341169256 3.9162104101171122 0.3401531613038897 -1.1787323390713769 -1.9129546797071848 -0.3712935107237791 0.5764550169938482 0.6132284712169211 -0.707958484854136 0.705938304396508 14.485382953590985 -2.432874623518192 0.16710670043447762 0.3331608568042083 -7.6889639862911165 1.088533065021588 -15.044973363793456 -0.6009029924628116 -6.064182885674065 2.07092055833344 -14.874302526711151 72.77337827126956 28.95437430544845 7.926639451262703 2.667683265539966 2.364649180193116 66.9882399988443 21.6675477588784 -0.3536430274850501 -4.357667341072366 4.5768315862643325 -0.12682598677692838 -1.616278339764871 -0.023839222955883307 -0.03054026922332853 -56.21191374248827 -0.042760667227358704 0.033738636116407 -56.20833641103493 -38.779597771101386 0.010061528442561408 -0.017014222401726 -0.04172102603785731 0.033051902319151324 0.006783031414626854 0.020151241380407484 -0.004236020514016385 0.030414480218237464 -36.739298428680605 -0.04005693226765918 -0.034753146603241754 -0.01876565717490949 -0.006882582435634704 0.006680801213466431 -0.032785916791116185 0.0055155205374915525 0.0019834426271298994 -19.769605937883238 -0.02860671088610453 -0.017939669630581943 0.03144133815494333 0.04657061037436901 -0.031780268309422904 -0.006285809313496442 0.0020569811540019876 -0.0032856582908719154 24.075786255643184 0.03691794749977589 0.003415526380574404 28.909131571124036 0.04009783472226821 0.03751628930904645 28.87886237968665 -0.019698614913681505 0.044182821986312515 5.9436809436332085 1.4199317661394173 13.186127375041876 -68.79823901763864 29.66952171031481 -7.533951283644585 3.6555793795737808 -9.9961270660574 -56.48084899257008 -10.92076781370386 -0.3604834203218237 2.1340321235559485 -0.4559674397082626 0.10786507205898709 -8.162715065305685 -0.03804025904152337 0.0490583598088311 44.538990412531426 -0.04959442232177022 -0.025315025346352 44.59355041505914 12.462667502900315 -0.04000002659866748 0.03491115952802921 0.047874177178836255 -0.011558384049363619 -0.0021940542002154345 0.011965924809022298 0.0013779141314999867 -0.033285289787979774 11.08473311025501 0.005826275466585422 0.03410212795277281 0.014425436651585691 -0.028689593868678184 -0.0004107379798835715 0.03960520524347794 0.02015449607043333 -0.021238289210900707 4.73236418987813 0.031697390083985484 -0.03341441461647446 0.01645514428709545 -0.010359462273675494 0.012403536545901199 0.0284339798412315 -0.00996691513974015 0.004576861085367351 -5.624571683908148 0.045447345015236215 -0.01556541945824525 -6.745122326979671 -0.004715246500692252 -0.030582311434838572 -6.70727810307252 0.00842846034335536 0.004046789068867669 0.040634155087466706 0.04962604951127654 0.018159898674047735 8.059933359318226 3.52565414201997 -19.207159860302276 0.035087745520417296 10.399440569304259 0.06301809274591193 -5.620370380019906 -15.616652885582115 3.177386533581753 0.00019042183466050618 -0.0066846512066690905 -0.013073307798212676 0.023060016629696284 4.694025441022877 -0.04690702830219222 12.486255060654617 -8.197894981638976 6.89855538749889 0.039299417631071885 46.35485625616874 0.0214805199292893 -4.337301048373416 -14.700317987112438 -3.83242139079941 0.04037468828427803 -0.0007751223232337628 0.03023686293562186 -0.02903312873806275 -10.794624892059199 -0.04166915722451509 
-0.007088925318282949 -0.04246393099425866 0.021877795218280243 -0.005198370509198683 -0.025618203892260185 0.012614972337639288 -0.9827058236075543 1.5461415226748834 -1.0835655886536844 -0.9664362727336554 3.9688802756077073 0.35999793359172066 -1.213183541765433 -1.9350922650630655 -0.32986120965037463 0.638937404082624 0.6313986761698656 -0.6936341820496279 0.7712784311825255 14.545631466746539 -2.7949760032607798 0.15586016088247695 0.2992221173176156 -8.390668647097876 1.2124800804715938 -15.06762023208347 -0.6721330782025303 -6.472064461086595 2.162861366869169 -15.001710198053361 73.17133121066958 28.949158523077486 7.874371035525602 2.578011415399079 2.3022797267500517 66.25788871466425 21.488129032556618 -0.4187583330437262 -4.289852680487727 4.528225602849449 -0.13359372519297433 -1.6272908725319721 -0.007843906112668456 -0.020605673021780686 -56.27269867205916 -0.019948397264971225 0.010814991346005961 -56.24312437329857 -38.75811912085365 0.02556506639993496 -0.01652684638505877 -0.03252754146534573 0.013340617988411628 -0.014865050789354406 0.008820958304660639 0.0240969001071303 -0.033969797680608 -36.695242968015926 0.0013760824379321398 -0.03253636485417311 0.009404041750416387 -0.043487486943511205 -0.029963890868108505 0.003336182755411498 0.00623334698960784 -0.009551382128063685 -19.804505943421677 -0.0441424752215061 0.011771749325433517 0.0014892226962247256 -0.031014777731114752 0.001810266441502056 -0.03763834872794853 -0.03892834501854731 0.03336655702315856 24.08734352062023 0.012879279513364495 0.027771547623775792 28.840664349859598 0.004008725160787876 0.009276494107479513 28.89103357477216 -0.01667303884599676 0.024505309515961436 6.014429280401199 1.4868919295507432 13.284043270186826 -69.24002795438997 29.652453860092706 -7.065843519012018 3.5425360140150386 -9.52604356673654 -54.86196565132736 -11.241147756257178 -0.35022951158690097 2.167283749965408 -0.4949908803647818 0.07944841031553279 -8.08936870456313 -0.025337611232464443 0.0263705201771023 44.598562145145884 0.01603738622777104 -0.03923917806029121 44.56185469967113 12.454545376481956 -0.029093004263499048 0.02284041721844519 -0.00013012725042577884 0.04311228070408029 0.03300387424486473 -0.0012509775521421674 0.018859530043522383 -0.03156770493418508 11.089759030250626 0.018847472298196534 -0.03546747142054188 -0.026220433160436804 0.03787061751734631 -0.020979789012522985 -0.004410335627164813 0.01474288113248799 0.010664960993720598 4.813883749881628 0.006701849790477004 -0.044204773772300886 -0.00591815408428608 0.0038586189466073444 -0.010411788022546548 0.017900915404432182 -0.01150013601506818 -0.007298188703312994 -5.629217628213338 0.011219023357476892 0.005664518218435847 -6.69565731690091 -0.008633371807167382 -0.026084276879594286 -6.707317357305045 0.01707525559781977 0.03879663159175582 0.0003093789172159432 -0.011172349194020196 0.002977990270319575 8.0857935916983 3.4757283710807356 -19.24008833161997 -0.024963098166071795 10.43761288892555 0.03619078135903281 -5.579318572906975 -15.6132865501583 3.2043925666680417 -0.035316019839567815 -0.0028871326364589066 -0.025535705221093167 -0.025200234773903783 4.667271384587732 -0.03011362635216864 12.416948130350981 -8.245320185481061 6.836489405663275 -0.005802945110667268 46.37326071942257 -0.01696118542910926 -4.361986573304826 -14.78609598305684 -3.859370721659989 -0.005380760931849413 -0.02418388994611221 -0.02148096748914014 0.04699883515555293 -10.746218496838846 -3.148222359879005e-05 
-0.01633786215188213 0.013346093510118662 -0.03949111948138799 0.019065186005382588 -0.012042973888581549 -0.032311168183594446 -0.7488919432264457 1.4618132804786739 -1.1001127064980085 -0.8734337669806049 3.876534453304781 0.38831435876621717 -1.2226227665676075 -1.9756220083063731 -0.26309563751874576 0.6998994880440329 0.5808941575175071 -0.6293167193234358 0.8907957061925847 14.638644705825785 -3.121674299315067 0.15024912398578394 0.29424630901588766 -9.119508050818267 1.2589489943111283 -15.108594087537785 -0.7239514557732977 -6.687617432462656 2.2030935668514537 -15.121213879016478 73.27526314008252 29.129571917440277 8.146777373720864 2.7376137102654523 2.298437344079683 66.15471996652072 21.519455122437552 -0.3427667019307452 -4.334424834155937 4.520203394812377 -0.17124910023710013 -1.5812327017890382 -0.015182299710113822 -0.03174340241913629 -56.184910482224794 -0.03392700147901748 0.0005646101746801256 -56.24358469780947 -38.776107239222746 -0.03935441068192466 -0.00012413660627271284 0.028845615309770044 0.0017286707201493719 0.011111513879709128 0.001365302580599186 0.016945494289678772 -0.0024631341237029607 -36.740840009352745 -0.03937792830210321 -0.013321436015670601 -0.02307352530700654 -0.03955424474620549 -0.045191333160068854 0.024128535967617964 0.030010117040562702 0.03070681119374766 -19.740326819723773 0.017867007904966807 -0.018588210871271577 -0.006931117200316165 -0.0479580297589968 -0.01938929027819754 0.022444072225176873 0.04177637151004357 0.02332819027628731 24.044100743177932 -0.003692566338571559 -0.044511080625913274 28.85644169026024 -0.02521776037031945 0.03610635186698626 28.848868013217114 0.005977113719636843 0.029707991064843117 6.025420625541043 1.4727384318197814 13.269650922045503 -69.54921823681246 29.76712424186276 -6.4036081895198596 3.2883971136176533 -8.979095232888406 -53.31684568561733 -11.798815255358718 -0.210763675732054 2.103004229988768 -0.45068705837713774 0.062194772158597464 -8.140347055274372 -0.018837041690282913 0.012122140906671557 44.5243797057572 -0.02012423644351618 0.0222309654296142 44.54033985977329 12.50359025038214 0.020227511707590348 0.02097562524206312 0.001501360062714349 0.008176688407809336 -0.027904003435393596 -0.045219076361304615 -0.017844537826299307 0.04498337180542906 11.138687365233196 0.021989536892317627 0.004051779015395386 -0.00982682155904939 -0.04678192554144746 -0.04747087306330012 -0.011023551353933394 0.022709330418402916 -0.02405701133554751 4.733998323970599 0.040011879080816555 -0.037545509220488084 0.019261018464655985 -0.03030474687075308 -0.036085513342247064 -0.018608422535617685 0.03599540682499084 -0.049231235871497366 -5.627177563606472 -0.026781274279590216 -0.011918744835110595 -6.76501384115394 0.02176059669145229 0.010215922707959674 -6.703975891687402 0.0031441217814042887 0.020595862061173146 -0.016480709446242026 -0.0009520175760044203 -0.04322800727525387 8.034496778583073 3.5029588279997834 -19.17048105357874 0.04261551430389216 10.367047154919453 0.06012505566694615 -5.66220509149974 -15.687908957764085 3.1911646255668114 0.029940127595747486 0.03377674188768036 0.010118488863434347 0.01894601090036195 4.651191063391986 -0.02461448624269415 12.468868713141276 -8.215789578362777 6.849324283327175 -0.023913639522499495 46.38107191988636 -0.013329889166903381 -4.323527010132646 -14.79619627169271 -3.803878044098715 -0.002558549331301794 -0.04760858760288249 -0.01596463768927887 -0.04658810145427316 -10.775320973572976 -0.03203671108589809 
-0.02814940183103421 -0.03348315442610513 0.007347240407270514 -0.04545076077051198 0.029480239596074084 0.0050425302808097 -0.5111152647935785 1.4173290905737093 -1.0982621231272216 -0.8694684836147734 3.8925169637639487 0.3712004262542629 -1.2005524580917302 -1.9671973904589497 -0.1433612837649022 0.689696464992315 0.5346479405131548 -0.6498320518499197 0.9720357613584085 14.494854531465553 -3.3406007042976293 0.1381784224983242 0.3272297017371106 -9.747072777360824 1.3579021034449412 -15.161677205579526 -0.746429231477684 -6.970371782740159 2.2500989722251856 -15.277845826948235 73.3517766131657 29.285920946049476 8.256811626364568 1.7363118741407209 2.1337019241264072 66.10059726203833 21.643150575482867 -0.43772701972508954 -4.426077977141388 4.490862503467876 -0.12491073587522364 -1.571444780775689 -0.009472765931194048 0.014196796398799488 -56.23133016164597 0.029681251972037435 0.049628756318022146 -56.19482673388227 -38.761351730407156 0.028617657962310607 0.004790742178604419 0.025619837588006754 -0.02823881133610104 0.0016983076219280891 -0.04390706202993113 -0.0009848300299425412 -0.014219814147840494 -36.723028258058726 0.010688617510105537 0.04367821413202893 -0.0024328784619337108 0.021583733760443185 -0.01226996693863119 0.047520221435870064 -0.00866332788178885 0.007942842090546947 -19.7399604149592 0.0023429636400641835 0.016705379586416137 -0.0019986766084228395 0.028121070419885253 -0.03001349686911158 -0.034836962509596524 -0.03640541967942654 -0.01286338134395294 24.06681885579142 0.00831011318881936 0.04027475518114338 28.865649684018237 -0.009926301542229054 0.002304969066359343 28.858493777016562 0.025930450318581988 0.005115914094718105 5.950958670129492 1.4858227307902288 13.400482310987826 -69.966307517967 29.90096178108116 -5.613556717189772 2.833693623219647 -8.21789447535326 -51.834794400015355 -12.373150423843997 -0.17976370599835367 2.163398050176623 -0.45447674048048486 0.1059409441180102 -8.150406615664464 -0.0031788827725863734 -0.04921647553525041 44.58487667342527 -0.007239514133130658 -0.029519494991634747 44.52378108053509 12.424904366373802 0.033198851149743504 -0.04195626114433501 0.025833820933858182 -0.013989256917348668 0.0454032688907045 -0.03594026224715522 -0.01576442027762292 -0.04362333450462213 11.106060303301732 -0.04823737255319864 0.02547199580439521 0.029723528926635347 0.047992022673233665 -0.048845916186932764 -0.0410122395068389 -0.02823586010240994 -0.030692210113408547 4.7561585914551054 -0.006418432514829143 0.019257588909861838 0.022352674630112278 0.04295087506615464 0.019419545853778152 0.004973770869747124 0.01717139937872268 -0.04323058194299292 -5.642864697275883 0.022422083220619615 -0.04574337958994122 -6.712311413042393 0.01962705326058523 0.02613189337041421 -6.706749157924531 0.00659071200560936 -0.0495674963421581 -0.008171421247458106 0.011401342464437669 -0.03022012628849007 8.069423574983091 3.4943312493003766 -19.19276690176527 0.028716949987224454 10.393476157087397 0.009868119030991978 -5.5854996488733075 -15.684359298321258 3.2309090093556643 0.03080951773212841 0.013112505434887668 -0.02463848405632966 0.03416366975481972 4.669073963696967 -0.012726469616062625 12.424360509855983 -8.20132589980403 6.880277210759055 0.021756015839356914 46.40341278017677 0.011972168967365797 -4.327022024322292 -14.739974543947769 -3.8783061961607275 -0.026945937530165387 0.01864098155085498 -0.018864324494335803 0.03233617906042669 -10.73394452078986 -0.042592286166791976 
